<?xml version="1.0" encoding="UTF-8"?>
<svg id="Layer_1" data-name="Layer 1" xmlns="http://www.w3.org/2000/svg" xmlns:xlink="http://www.w3.org/1999/xlink" viewBox="0 0 730 330">
  <defs>
    <style>
      .cls-1 {
        fill: url(#linear-gradient-2);
      }

      .cls-2 {
        fill: url(#linear-gradient-6);
      }

      .cls-3 {
        fill: url(#linear-gradient-11);
      }

      .cls-4 {
        fill: url(#linear-gradient-10);
      }

      .cls-5 {
        fill: url(#linear-gradient-5);
      }

      .cls-6 {
        fill: url(#linear-gradient-7);
      }

      .cls-7 {
        fill: url(#linear-gradient-9);
      }

      .cls-8 {
        fill: url(#linear-gradient-3);
      }

      .cls-9 {
        fill: url(#linear-gradient);
      }

      .cls-10 {
        fill: url(#linear-gradient-4);
      }

      .cls-11 {
        fill: url(#linear-gradient-8);
      }
    </style>
    <linearGradient id="linear-gradient" x1="162.75" y1="252.03" x2="175.96" y2="133.16" gradientUnits="userSpaceOnUse">
      <stop offset="0" stop-color="#2f429b"/>
      <stop offset=".99" stop-color="#0994b5"/>
    </linearGradient>
    <linearGradient id="linear-gradient-2" x1="163.67" y1="252.13" x2="176.88" y2="133.27" xlink:href="#linear-gradient"/>
    <linearGradient id="linear-gradient-3" x1="160.32" y1="251.76" x2="173.53" y2="132.89" xlink:href="#linear-gradient"/>
    <linearGradient id="linear-gradient-4" x1="259.02" y1="181.51" x2="560.91" y2="66.42" xlink:href="#linear-gradient"/>
    <linearGradient id="linear-gradient-5" x1="266" y1="199.81" x2="567.89" y2="84.72" xlink:href="#linear-gradient"/>
    <linearGradient id="linear-gradient-6" x1="269.6" y1="209.26" x2="571.49" y2="94.17" xlink:href="#linear-gradient"/>
    <linearGradient id="linear-gradient-7" x1="281.46" y1="240.37" x2="583.35" y2="125.28" xlink:href="#linear-gradient"/>
    <linearGradient id="linear-gradient-8" x1="282.9" y1="244.14" x2="584.79" y2="129.05" xlink:href="#linear-gradient"/>
    <linearGradient id="linear-gradient-9" x1="291.11" y1="265.67" x2="592.99" y2="150.57" xlink:href="#linear-gradient"/>
    <linearGradient id="linear-gradient-10" x1="297.29" y1="281.87" x2="599.17" y2="166.78" xlink:href="#linear-gradient"/>
    <linearGradient id="linear-gradient-11" x1="298.99" y1="286.33" x2="600.87" y2="171.24" xlink:href="#linear-gradient"/>
  </defs>
  <g>
    <g>
      <path class="cls-9" d="M191.5,170.49l-39.41-16.39c-1.75-.73-2.52-2.79-1.67-4.48l15.61-31.22c1.21-2.41,4.65-2.41,5.85,0l23.8,47.61c1.36,2.71-1.38,5.65-4.18,4.48Z"/>
      <path class="cls-1" d="M211.28,197.2h-79.36c-2.43,0-4.01-2.56-2.93-4.74l10.9-21.81c.77-1.54,2.6-2.22,4.18-1.56l67.11,27.91,.1,.19Z"/>
    </g>
    <path class="cls-8" d="M169.96,239.1c-40.86,0-74.1-33.24-74.1-74.1s33.24-74.1,74.1-74.1,74.1,33.24,74.1,74.1-33.24,74.1-74.1,74.1Zm0-135.45c-33.83,0-61.35,27.52-61.35,61.35s27.52,61.35,61.35,61.35,61.35-27.52,61.35-61.35-27.52-61.35-61.35-61.35Z"/>
  </g>
  <g>
    <path class="cls-10" d="M303.28,181.38h-24.55l-5.49,13.47c-.36,.85-.85,1.58-1.49,2.18-.64,.6-1.37,1.05-2.18,1.33-.82,.28-1.68,.42-2.58,.4-.9-.02-1.78-.2-2.63-.56-.85-.35-1.56-.85-2.13-1.49-.57-.64-.99-1.35-1.25-2.13-.27-.78-.38-1.61-.35-2.48,.04-.87,.25-1.73,.64-2.58l23.91-54.9c.57-1.24,1.38-2.22,2.42-2.93,1.05-.71,2.26-1.06,3.65-1.06,1.28,0,2.45,.35,3.51,1.04,1.07,.69,1.87,1.66,2.4,2.9l23.59,54.96c.35,.85,.56,1.71,.61,2.58,.05,.87-.04,1.69-.29,2.45s-.65,1.46-1.2,2.1-1.25,1.15-2.1,1.54-1.71,.59-2.58,.59-1.71-.14-2.5-.43c-.8-.28-1.53-.73-2.18-1.33-.66-.6-1.18-1.33-1.57-2.18l-5.64-13.47Zm-19.12-13.21h13.58l-6.87-16.46-6.71,16.46Z"/>
    <path class="cls-5" d="M340.59,194.79c-.34,.78-.81,1.47-1.41,2.08-.6,.6-1.31,1.07-2.1,1.41-.8,.34-1.64,.51-2.53,.51s-1.78-.17-2.58-.51c-.8-.34-1.5-.81-2.1-1.41-.6-.6-1.08-1.3-1.44-2.08-.35-.78-.53-1.63-.53-2.56v-37.12c0-.89,.18-1.73,.53-2.53s.83-1.5,1.44-2.1c.6-.6,1.32-1.07,2.16-1.41,.83-.34,1.71-.51,2.63-.51,1.35,0,2.56,.37,3.62,1.12,1.07,.75,1.85,1.7,2.34,2.87,1.99-1.24,4.13-2.2,6.42-2.87,2.29-.67,4.68-1.03,7.16-1.06h.37c2.16,0,3.85,.61,5.06,1.84,1.21,1.22,1.81,2.8,1.81,4.71,0,.96-.18,1.84-.53,2.64-.36,.8-.84,1.49-1.46,2.08-.62,.59-1.35,1.04-2.18,1.36-.83,.32-1.73,.48-2.69,.48h-.27c-1.81,.04-3.51,.42-5.11,1.14-1.6,.73-3,1.7-4.21,2.93-1.21,1.23-2.16,2.65-2.85,4.29-.69,1.63-1.04,3.37-1.04,5.22v16.93c0,.92-.17,1.78-.5,2.56Z"/>
    <path class="cls-2" d="M367.98,174.03v-36.9c0-.92,.17-1.77,.5-2.56s.8-1.46,1.41-2.05c.6-.59,1.3-1.05,2.09-1.38,.8-.34,1.65-.51,2.57-.51s1.73,.17,2.55,.51c.81,.34,1.51,.8,2.09,1.38,.58,.59,1.05,1.27,1.4,2.05,.35,.78,.53,1.63,.53,2.56v14.7c.75-.43,1.53-.82,2.35-1.17,3.09-1.35,6.38-2.02,9.87-2.02s6.82,.67,9.89,2c3.07,1.33,5.76,3.15,8.05,5.46,2.29,2.31,4.11,5,5.44,8.07,1.33,3.07,2,6.36,2,9.88s-.66,6.76-2,9.85c-1.33,3.09-3.14,5.78-5.43,8.07-2.29,2.29-4.97,4.1-8.04,5.43-3.07,1.33-6.36,2-9.88,2s-6.76-.66-9.85-1.97c-1.17-.5-2.27-1.06-3.3-1.7-.29,.43-.62,.83-1.01,1.23-.57,.57-1.26,1.02-2.08,1.36s-1.67,.51-2.56,.51-1.78-.17-2.58-.51c-.8-.34-1.5-.8-2.1-1.38-.6-.59-1.07-1.27-1.41-2.05-.34-.78-.5-1.63-.5-2.56v-18.27Zm13.21,.03c0,1.67,.32,3.25,.96,4.72,.64,1.48,1.51,2.77,2.62,3.87,1.1,1.1,2.39,1.97,3.87,2.59s3.05,.93,4.72,.93,3.3-.31,4.78-.93,2.76-1.49,3.84-2.59c1.09-1.1,1.95-2.39,2.59-3.87,.64-1.48,.96-3.05,.96-4.72s-.32-3.29-.96-4.75c-.64-1.46-1.5-2.74-2.59-3.84-1.09-1.1-2.37-1.97-3.84-2.59s-3.07-.93-4.78-.93-3.25,.31-4.72,.93c-1.48,.62-2.76,1.48-3.87,2.59-1.1,1.1-1.97,2.38-2.62,3.84-.64,1.46-.96,3.04-.96,4.75Z"/>
    <path class="cls-6" d="M423.31,174.03c0-3.51,.67-6.81,2.02-9.88,1.35-3.07,3.18-5.76,5.49-8.07s5-4.13,8.07-5.46c3.07-1.33,6.35-2,9.83-2s6.69,.66,9.74,1.97c3.05,1.31,5.73,3.1,8.01,5.35s4.11,4.91,5.46,7.96c1.35,3.05,2.06,6.3,2.13,9.74v18.37c0,.92-.18,1.8-.53,2.64-.36,.84-.83,1.55-1.44,2.16-.6,.6-1.31,1.08-2.13,1.44-.82,.36-1.7,.53-2.66,.53-1.35,0-2.52-.33-3.51-.99-.99-.66-1.74-1.52-2.24-2.58-1.92,1.28-3.95,2.29-6.1,3.04-2.15,.75-4.39,1.12-6.74,1.12-3.48,0-6.75-.67-9.83-2-3.07-1.33-5.76-3.14-8.07-5.43-2.31-2.29-4.14-4.98-5.49-8.07-1.35-3.09-2.02-6.37-2.02-9.85Zm13.21,.03c0,1.67,.32,3.25,.96,4.72,.64,1.48,1.51,2.77,2.62,3.87,1.1,1.1,2.39,1.97,3.87,2.59,1.48,.62,3.05,.93,4.72,.93s3.3-.31,4.78-.93,2.76-1.49,3.84-2.59c1.09-1.1,1.95-2.39,2.59-3.87,.64-1.48,.96-3.05,.96-4.72s-.32-3.29-.96-4.75c-.64-1.46-1.5-2.74-2.59-3.84-1.09-1.1-2.37-1.97-3.84-2.59-1.48-.62-3.07-.93-4.78-.93s-3.25,.31-4.72,.93-2.77,1.48-3.87,2.59c-1.1,1.1-1.97,2.38-2.62,3.84-.64,1.46-.96,3.04-.96,4.75Z"/>
    <path class="cls-11" d="M497.86,192.29c0,.92-.17,1.78-.51,2.56-.34,.78-.81,1.46-1.41,2.05s-1.3,1.05-2.1,1.38c-.8,.34-1.66,.51-2.58,.51s-1.78-.17-2.58-.51c-.8-.34-1.5-.8-2.1-1.38-.6-.59-1.07-1.27-1.41-2.05-.34-.78-.51-1.63-.51-2.56v-55.17c0-.92,.17-1.77,.51-2.56,.34-.78,.81-1.46,1.41-2.05,.6-.59,1.3-1.05,2.1-1.38,.8-.34,1.66-.51,2.58-.51s1.78,.17,2.58,.51c.8,.34,1.5,.8,2.1,1.38,.6,.59,1.07,1.27,1.41,2.05,.34,.78,.51,1.63,.51,2.56v55.17Z"/>
    <path class="cls-7" d="M520.18,179.94c1.03,2.06,2.51,3.7,4.45,4.93,1.94,1.23,4.07,1.84,6.42,1.84,.96,0,1.78-.06,2.48-.19s1.3-.28,1.84-.48c.53-.19,1.01-.43,1.44-.72s.83-.59,1.23-.91c1.17-.92,2.32-1.46,3.43-1.6,1.12-.14,2.18-.02,3.17,.37,.67,.25,1.28,.62,1.81,1.12,.53,.5,.99,1.06,1.38,1.7,.39,.64,.67,1.33,.85,2.08,.18,.75,.21,1.5,.11,2.26-.11,.76-.35,1.52-.75,2.26-.39,.75-.98,1.42-1.76,2.02-.71,.6-1.53,1.19-2.45,1.76-.92,.57-2,1.07-3.22,1.52-1.22,.44-2.62,.8-4.18,1.06-1.56,.27-3.36,.4-5.38,.4-3.51,0-6.82-.67-9.91-2-3.09-1.33-5.8-3.14-8.12-5.43-2.33-2.29-4.16-4.97-5.51-8.04-1.35-3.07-2.02-6.36-2.02-9.88s.67-6.82,2.02-9.9c1.35-3.09,3.19-5.78,5.51-8.07,2.32-2.29,5.03-4.1,8.12-5.43s6.39-2,9.91-2,6.71,.65,9.8,1.94c3.09,1.3,5.79,3.08,8.1,5.35,2.31,2.27,4.14,4.93,5.51,7.96,1.37,3.04,2.08,6.29,2.16,9.77,0,1.88-.6,3.4-1.81,4.55-1.21,1.15-2.77,1.73-4.69,1.73h-29.93Zm22.85-10.97c-.92-2.34-2.42-4.22-4.5-5.64-2.08-1.42-4.5-2.13-7.27-2.13-1.35,0-2.63,.2-3.83,.59-1.21,.39-2.3,.93-3.27,1.62-.98,.69-1.84,1.52-2.58,2.48-.75,.96-1.33,1.99-1.76,3.09h23.22Z"/>
    <path class="cls-4" d="M573.16,177.09c-2.13-.91-4.02-1.97-5.67-3.2-1.65-1.22-2.97-2.64-3.97-4.26-1-1.62-1.49-3.52-1.49-5.72s.49-4.36,1.46-6.26c.98-1.9,2.3-3.52,3.97-4.87,1.67-1.35,3.59-2.4,5.78-3.17,2.18-.76,4.5-1.14,6.95-1.14,1.45,0,3,.14,4.63,.43,1.63,.28,3.19,.72,4.66,1.31,1.47,.59,2.8,1.32,3.97,2.21,1.17,.89,2.06,1.92,2.66,3.09,.6,1.28,.81,2.47,.61,3.57-.19,1.1-.65,2.06-1.36,2.88-.78,.89-1.77,1.5-2.96,1.84-1.19,.34-2.35,.26-3.49-.24-.75-.32-1.41-.67-2-1.06-.59-.39-1.17-.76-1.76-1.12-.59-.35-1.2-.66-1.84-.91-.64-.25-1.37-.37-2.18-.37-1.95,0-3.42,.31-4.39,.93-.98,.62-1.47,1.46-1.47,2.53,0,.6,.19,1.14,.59,1.6,.39,.46,.94,.89,1.65,1.28,.71,.39,1.56,.76,2.56,1.12,.99,.35,2.11,.73,3.36,1.12,2.02,.64,3.95,1.36,5.78,2.16,1.83,.8,3.45,1.77,4.87,2.93,1.42,1.15,2.55,2.55,3.38,4.18,.83,1.63,1.25,3.6,1.25,5.91,0,2.17-.45,4.2-1.36,6.1-.9,1.9-2.17,3.55-3.78,4.95-1.62,1.4-3.55,2.5-5.8,3.3-2.25,.8-4.71,1.2-7.37,1.2-1.6,0-3.3-.17-5.11-.51-1.81-.34-3.57-.87-5.27-1.6-1.7-.73-3.29-1.67-4.77-2.82-1.47-1.15-2.65-2.55-3.54-4.18-.71-1.28-1.06-2.48-1.04-3.59s.28-2.1,.77-2.96c.5-.85,1.18-1.54,2.05-2.05s1.83-.8,2.88-.85c1.05-.05,2.12,.15,3.22,.61,1.1,.46,2.13,1.26,3.09,2.4,.53,.67,1.06,1.26,1.6,1.76,.53,.5,1.09,.92,1.68,1.25,.59,.34,1.23,.59,1.92,.75,.69,.16,1.5,.24,2.42,.24,.71,0,1.4-.07,2.08-.21,.67-.14,1.28-.35,1.81-.64,.53-.28,.96-.64,1.28-1.06,.32-.43,.48-.92,.48-1.49,0-.82-.25-1.49-.75-2.02-.5-.53-1.07-.98-1.73-1.33-.66-.35-1.34-.64-2.05-.85-.71-.21-1.28-.39-1.7-.53-2.24-.82-4.42-1.68-6.55-2.58Z"/>
    <path class="cls-3" d="M624.61,148.73h2.93c.92,0,1.79,.17,2.61,.51,.82,.34,1.52,.8,2.1,1.38,.59,.59,1.05,1.28,1.38,2.08,.34,.8,.51,1.66,.51,2.58s-.17,1.78-.51,2.58c-.34,.8-.8,1.5-1.38,2.1-.59,.6-1.29,1.08-2.1,1.44-.82,.35-1.69,.53-2.61,.53h-2.93v30.35c0,.92-.17,1.78-.5,2.56-.34,.78-.81,1.46-1.41,2.05-.6,.59-1.31,1.05-2.1,1.38-.8,.34-1.66,.51-2.58,.51s-1.78-.17-2.58-.51-1.5-.8-2.1-1.38c-.6-.59-1.07-1.27-1.41-2.05-.34-.78-.51-1.63-.51-2.56v-30.35h-2.5c-.92,0-1.78-.18-2.58-.53-.8-.35-1.5-.83-2.1-1.44-.6-.6-1.07-1.31-1.41-2.1-.34-.8-.5-1.66-.5-2.58s.17-1.78,.5-2.58c.34-.8,.81-1.49,1.41-2.08,.6-.59,1.31-1.05,2.1-1.38,.8-.34,1.66-.51,2.58-.51h2.5v-11.61c0-.92,.17-1.77,.51-2.56,.34-.78,.81-1.46,1.41-2.05,.6-.59,1.3-1.05,2.1-1.38,.8-.34,1.66-.51,2.58-.51s1.78,.17,2.58,.51c.8,.34,1.5,.8,2.1,1.38,.6,.59,1.07,1.27,1.41,2.05,.34,.78,.5,1.63,.5,2.56v11.61Z"/>
  </g>
</svg>