<svg width="41" height="41" viewBox="0 0 41 41" fill="none" xmlns="http://www.w3.org/2000/svg">
<path d="M26.0016 22.2002L15.2906 17.7958C14.806 17.6033 14.6121 17.0497 14.8302 16.5925L19.071 8.16888C19.4102 7.51906 20.3311 7.51906 20.6703 8.16888L27.1405 21.0209C27.504 21.7188 26.7528 22.513 26.0016 22.2002Z" fill="url(#paint0_linear_30_1272)"/>
<path d="M31.3817 29.4205H9.81435C9.16006 29.4205 8.72387 28.7225 9.01466 28.1449L11.9711 22.2484C12.1892 21.8392 12.6738 21.6467 13.11 21.8392L31.3574 29.3723L31.3817 29.4205Z" fill="url(#paint1_linear_30_1272)"/>
<path d="M20.1376 40.7323C9.03889 40.7323 0 31.7552 0 20.7323C0 9.70943 9.03889 0.7323 20.1376 0.7323C31.2363 0.7323 40.2752 9.70943 40.2752 20.7323C40.2994 31.7552 31.2605 40.7323 20.1376 40.7323ZM20.1376 4.17394C10.9533 4.17394 3.46531 11.5867 3.46531 20.7323C3.46531 29.8779 10.9533 37.2907 20.1376 37.2907C29.3219 37.2907 36.8098 29.8538 36.8098 20.7323C36.8098 11.6108 29.3461 4.17394 20.1376 4.17394Z" fill="url(#paint2_linear_30_1272)"/>
<defs>
<linearGradient id="paint0_linear_30_1272" x1="18.1868" y1="44.2268" x2="21.7291" y2="12.1276" gradientUnits="userSpaceOnUse">
<stop stop-color="#2F429B"/>
<stop offset="0.9917" stop-color="#0994B5"/>
</linearGradient>
<linearGradient id="paint1_linear_30_1272" x1="18.4363" y1="44.2543" x2="21.9785" y2="12.1552" gradientUnits="userSpaceOnUse">
<stop stop-color="#2F429B"/>
<stop offset="0.9917" stop-color="#0994B5"/>
</linearGradient>
<linearGradient id="paint2_linear_30_1272" x1="17.5269" y1="44.1541" x2="21.0691" y2="12.055" gradientUnits="userSpaceOnUse">
<stop stop-color="#2F429B"/>
<stop offset="0.9917" stop-color="#0994B5"/>
</linearGradient>
</defs>
</svg>
